<?xml version="1.0" standalone="no"?>
<!DOCTYPE svg PUBLIC "-//W3C//DTD SVG 20010904//EN"
 "http://www.w3.org/TR/2001/REC-SVG-20010904/DTD/svg10.dtd">
<svg version="1.0" xmlns="http://www.w3.org/2000/svg"
 width="3808.000000pt" height="2112.000000pt" viewBox="0 0 3808.000000 2112.000000"
 preserveAspectRatio="xMidYMid meet">

<g transform="translate(0.000000,2112.000000) scale(0.100000,-0.100000)"
fill="#000000" stroke="none">
<path d="M15972 18252 c-44 -71 -173 -367 -230 -527 -149 -418 -229 -738 -286
-1142 -65 -459 -77 -990 -35 -1553 105 -1417 509 -2747 1101 -3627 49 -73 93
-135 98 -138 5 -3 1265 -5 2802 -5 2564 -1 3516 4 3576 16 l22 4 -20 23 c-18
19 -22 20 -31 7 -8 -12 -9 -11 -5 6 8 27 -24 57 -50 48 -15 -5 -16 -4 -4 5 12
8 12 13 2 23 -10 10 -15 10 -23 -2 -8 -12 -9 -11 -5 6 8 27 -24 57 -50 48 -15
-5 -16 -4 -4 5 12 8 12 13 2 23 -10 10 -15 10 -23 -2 -8 -12 -9 -11 -5 6 8 27
-24 57 -50 48 -15 -5 -16 -4 -4 5 12 8 12 13 2 23 -10 10 -15 10 -23 -2 -8
-12 -9 -11 -5 6 8 27 -24 57 -50 48 -15 -5 -16 -4 -4 5 12 8 12 13 2 23 -10
10 -15 10 -23 -2 -8 -12 -9 -11 -5 6 8 27 -24 57 -50 48 -15 -5 -16 -4 -4 5
12 8 12 13 2 23 -10 10 -15 10 -23 -2 -8 -12 -9 -11 -5 6 8 27 -24 57 -50 48
-15 -5 -16 -4 -4 5 12 8 12 13 2 23 -10 10 -15 10 -23 -2 -8 -12 -9 -11 -5 6
8 27 -24 57 -50 48 -15 -5 -16 -4 -4 5 12 8 12 13 2 23 -10 10 -15 10 -23 -2
-8 -12 -9 -11 -5 6 8 27 -24 57 -50 48 -15 -5 -16 -4 -4 5 12 8 12 13 2 23
-10 10 -15 10 -23 -2 -8 -12 -9 -11 -5 6 8 27 -24 57 -50 48 -15 -5 -16 -4 -4
5 12 8 12 13 2 23 -10 10 -15 10 -23 -2 -8 -12 -9 -11 -5 6 8 27 -24 57 -50
48 -15 -5 -16 -4 -4 5 12 8 12 13 2 23 -10 10 -15 10 -23 -2 -8 -12 -9 -11 -5
6 8 27 -24 57 -50 48 -15 -5 -16 -4 -4 5 12 8 12 13 2 23 -10 10 -15 10 -23
-2 -8 -12 -9 -11 -5 6 8 27 -24 57 -50 48 -15 -5 -16 -4 -4 5 12 8 12 13 2 23
-10 10 -15 10 -23 -2 -8 -12 -9 -11 -5 6 8 27 -24 57 -50 48 -15 -5 -16 -4 -4
5 12 8 12 13 2 23 -10 10 -15 10 -23 -2 -8 -12 -9 -11 -5 6 8 27 -24 57 -50
48 -15 -5 -16 -4 -4 5 12 8 12 13 2 23 -10 10 -15 10 -23 -2 -8 -12 -9 -11 -5
6 8 27 -24 57 -50 48 -15 -5 -16 -4 -4 5 12 8 12 13 2 23 -10 10 -15 10 -23
-2 -8 -12 -9 -11 -5 6 8 27 -24 57 -50 48 -15 -5 -16 -4 -4 5 12 8 12 13 2 23
-10 10 -15 10 -23 -2 -8 -12 -9 -11 -5 6 8 27 -24 57 -50 48 -15 -5 -16 -4 -4
5 12 8 12 13 2 23 -10 10 -15 10 -23 -2 -8 -12 -9 -11 -5 6 8 27 -24 57 -50
48 -15 -5 -16 -4 -4 5 12 8 12 13 2 23 -10 10 -15 10 -23 -2 -8 -12 -9 -11 -5
6 8 27 -24 57 -50 48 -15 -5 -16 -4 -4 5 12 8 12 13 2 23 -10 10 -15 10 -23
-2 -8 -12 -9 -11 -5 6 8 27 -24 57 -50 48 -15 -5 -16 -4 -4 5 12 8 12 13 2 23
-10 10 -15 10 -23 -2 -8 -12 -9 -11 -5 6 8 27 -24 57 -50 48 -15 -5 -16 -4 -4
5 12 8 12 13 2 23 -10 10 -15 10 -23 -2 -8 -12 -9 -11 -5 6 8 27 -24 57 -50
48 -15 -5 -16 -4 -4 5 12 8 12 13 2 23 -10 10 -15 10 -23 -2 -8 -12 -9 -11 -5
6 8 27 -24 57 -50 48 -15 -5 -16 -4 -4 5 12 8 12 13 2 23 -10 10 -15 10 -23
-2 -8 -12 -9 -11 -5 6 8 27 -24 57 -50 48 -15 -5 -16 -4 -4 5 12 8 12 13 2 23
-10 10 -15 10 -23 -2 -8 -12 -9 -11 -5 6 8 27 -24 57 -50 48 -15 -5 -16 -4 -4
5 12 8 12 13 2 23 -10 10 -15 10 -23 -2 -8 -12 -9 -11 -5 6 8 27 -24 57 -50
48 -15 -5 -16 -4 -4 5 12 8 12 13 2 23 -10 10 -15 10 -23 -2 -8 -12 -9 -11 -5
6 8 27 -24 57 -50 48 -15 -5 -16 -4 -4 5 12 8 12 13 2 23 -10 10 -15 10 -23
-2 -8 -12 -9 -11 -5 6 8 27 -24 57 -50 48 -15 -5 -16 -4 -4 5 12 8 12 13 2 23
-10 10 -15 10 -23 -2 -8 -12 -9 -11 -5 6 8 27 -24 57 -50 48 -15 -5 -16 -4 -4
5 12 8 12 13 2 23 -10 10 -15 10 -23 -2 -8 -12 -9 -11 -5 6 8 27 -24 57 -50
48 -15 -5 -16 -4 -4 5 12 8 12 13 2 23 -10 10 -15 10 -23 -2 -8 -12 -9 -11 -5
6 8 27 -24 57 -50 48 -15 -5 -16 -4 -4 5 12 8 12 13 2 23 -10 10 -15 10 -23
-2 -8 -12 -9 -11 -5 6 8 27 -24 57 -50 48 -15 -5 -16 -4 -4 5 12 8 12 13 2 23
-10 10 -15 10 -23 -2 -8 -12 -9 -11 -5 6 8 27 -24 57 -50 48 -15 -5 -16 -4 -4
5 12 8 12 13 2 23 -10 10 -15 10 -23 -2 -8 -12 -9 -11 -5 6 8 27 -24 57 -50
48 -15 -5 -16 -4 -4 5 12 8 12 13 2 23 -10 10 -15 10 -23 -2 -8 -12 -9 -11 -5
6 8 27 -24 57 -50 48 -15 -5 -16 -4 -4 5 12 8 12 13 2 23 -10 10 -15 10 -23
-2 -8 -12 -9 -11 -5 6 8 27 -24 57 -50 48 -15 -5 -16 -4 -4 5 12 8 12 13 2 23
-10 10 -15 10 -23 -2 -8 -12 -9 -11 -5 6 8 27 -24 57 -50 48 -15 -5 -16 -4 -4
5 12 8 12 13 2 23 -10 10 -15 10 -23 -2 -8 -12 -9 -11 -5 6 8 27 -24 57 -50
48 -15 -5 -16 -4 -4 5 12 8 12 13 2 23 -10 10 -15 10 -23 -2 -8 -12 -9 -11 -5
6 8 27 -24 57 -50 48 -15 -5 -16 -4 -4 5 12 8 12 13 2 23 -10 10 -15 10 -23
-2 -8 -12 -9 -10 -4 6 3 12 0 26 -8 33 -13 10 -532 16 -2942 33 -203 1 -414 4
-469 6 l-98 3 6 39 c10 62 108 351 185 545 138 348 392 824 606 1136 84 124
277 377 339 446 21 24 35 43 31 43 -5 0 4 10 19 23 l26 23 -23 22 c-16 15 -31
20 -43 16 -15 -5 -16 -4 -4 5 12 8 12 13 2 23 -10 10 -15 10 -23 -2 -8 -12 -9
-11 -5 6 8 27 -24 57 -50 48 -15 -5 -16 -4 -4 5 12 8 12 13 2 23 -10 10 -15
10 -23 -2 -8 -12 -9 -11 -5 6 8 27 -24 57 -50 48 -15 -5 -16 -4 -4 5 12 8 12
13 2 23 -10 10 -15 10 -23 -2 -8 -12 -9 -11 -5 6 8 27 -24 57 -50 48 -15 -5
-16 -4 -4 5 12 8 12 13 2 23 -10 10 -15 10 -23 -2 -8 -12 -9 -11 -5 6 8 27
-24 57 -50 48 -15 -5 -16 -4 -4 5 12 8 12 13 2 23 -10 10 -15 10 -23 -2 -8
-12 -9 -11 -5 6 8 27 -24 57 -50 48 -15 -5 -16 -4 -4 5 12 8 12 13 2 23 -10
10 -15 10 -23 -2 -8 -12 -9 -11 -5 6 8 27 -24 57 -50 48 -15 -5 -16 -4 -4 5
12 8 12 13 2 23 -10 10 -15 10 -23 -2 -8 -12 -9 -11 -5 6 8 27 -24 57 -50 48
-15 -5 -16 -4 -4 5 12 8 12 13 2 23 -10 10 -15 10 -23 -2 -8 -12 -9 -11 -5 6
8 27 -24 57 -50 48 -15 -5 -16 -4 -4 5 12 8 12 13 2 23 -10 10 -15 10 -23 -2
-8 -12 -9 -11 -5 6 8 27 -24 57 -50 48 -15 -5 -16 -4 -4 5 12 8 12 13 2 23
-10 10 -15 10 -23 -2 -8 -12 -9 -11 -5 6 8 27 -24 57 -50 48 -15 -5 -16 -4 -4
5 12 8 12 13 2 23 -10 10 -15 10 -23 -2 -9 -12 -10 -11 -5 4 9 26 -21 58 -48
50 -17 -4 -18 -3 -6 5 12 8 12 13 2 23 -10 10 -15 10 -23 -2 -8 -12 -9 -11 -5
6 8 27 -24 57 -50 48 -15 -5 -16 -4 -4 5 12 8 12 13 2 23 -10 10 -15 10 -23
-2 -8 -12 -9 -11 -5 6 8 27 -24 57 -50 48 -15 -5 -16 -4 -4 5 12 8 12 13 2 23
-10 10 -15 10 -23 -2 -8 -12 -9 -11 -5 6 8 27 -24 57 -50 48 -15 -5 -16 -4 -4
5 12 8 12 13 2 23 -10 10 -15 10 -23 -2 -8 -12 -9 -11 -5 6 8 27 -24 57 -50
48 -15 -5 -16 -4 -4 5 12 8 12 13 2 23 -10 10 -15 10 -23 -2 -8 -12 -9 -11 -5
6 8 27 -24 57 -50 48 -15 -5 -16 -4 -4 5 12 8 12 13 2 23 -10 10 -15 10 -23
-2 -8 -12 -9 -11 -5 6 8 27 -24 57 -50 48 -15 -5 -16 -4 -4 5 12 8 12 13 2 23
-10 10 -15 10 -23 -2 -8 -12 -9 -11 -5 6 8 27 -24 57 -50 48 -15 -5 -16 -4 -4
5 13 9 12 13 -7 30 l-22 20 -29 -47z m38 18 c0 -5 -5 -10 -11 -10 -5 0 -7 5
-4 10 3 6 8 10 11 10 2 0 4 -4 4 -10z"/>
<path d="M13918 17115 c-102 -139 -267 -424 -403 -700 -408 -826 -648 -1683
-731 -2610 -21 -233 -24 -817 -6 -1040 66 -793 243 -1510 557 -2245 344 -808
913 -1690 1579 -2450 244 -279 714 -729 1021 -977 1057 -857 2321 -1434 3570
-1632 335 -53 220 -51 3074 -51 1457 0 2652 3 2654 8 7 10 -314 3205 -322
3214 -4 4 -43 1 -86 -8 -332 -63 -854 -122 -1405 -156 -255 -15 -1118 -16
-1380 0 -1630 98 -2998 428 -4283 1033 -559 263 -937 496 -1327 819 -160 132
-525 497 -664 665 -540 649 -957 1424 -1262 2344 -249 748 -420 1597 -498
2476 -31 345 -39 500 -45 925 l-6 435 -37 -50z"/>
<path d="M1565 3793 c-425 -33 -748 -164 -999 -403 -220 -210 -349 -480 -396
-825 -6 -44 -44 -611 -85 -1260 -41 -649 -77 -1208 -80 -1242 l-6 -63 513 0
513 0 43 692 c24 381 46 708 49 726 l5 32 1364 0 c767 0 1365 4 1368 9 8 13
67 861 61 872 -4 5 -543 9 -1372 9 l-1366 0 7 63 c21 205 247 410 528 477 80
19 119 20 1156 20 l1072 0 9 23 c11 31 65 853 57 866 -5 8 -349 11 -1204 9
-658 -1 -1215 -3 -1237 -5z"/>
<path d="M11756 3063 c-61 -124 -98 -279 -115 -482 -30 -368 96 -900 270
-1141 l29 -40 328 1 c419 1 1220 14 1227 20 2 3 -166 176 -375 385 l-380 379
-78 6 c-42 4 -221 9 -397 13 -375 8 -385 9 -385 38 0 62 102 278 204 432 51
78 83 136 62 115 -3 -3 -81 70 -173 163 -92 92 -172 168 -178 168 -6 0 -24
-26 -39 -57z"/>
<path d="M4764 2929 c-6 -10 -193 -2807 -194 -2896 l0 -33 400 0 400 0 0 43
c1 23 43 681 94 1462 51 781 91 1423 89 1428 -7 13 -781 9 -789 -4z"/>
<path d="M6755 2928 c-2 -7 -44 -652 -94 -1433 -50 -781 -93 -1437 -96 -1458
l-5 -37 399 0 400 0 5 43 c3 23 35 517 72 1097 36 580 67 1065 70 1078 l5 23
722 -3 722 -3 78 -28 c94 -33 169 -79 219 -135 43 -48 83 -122 92 -173 3 -19
-21 -449 -54 -954 -33 -506 -60 -925 -60 -932 0 -10 80 -13 400 -13 382 0 400
1 400 18 0 11 27 444 61 963 66 1023 68 1131 30 1286 -40 163 -113 286 -234
399 -159 149 -375 237 -646 264 -161 16 -2480 14 -2486 -2z"/>
<path d="M15415 2930 c-6 -9 -195 -2829 -195 -2907 l0 -23 1274 0 c1116 0
1284 2 1357 16 359 68 637 264 777 548 93 188 106 270 148 904 30 459 33 552
24 642 -43 440 -309 713 -785 806 -83 17 -191 19 -1342 21 -900 3 -1253 1
-1258 -7z m2210 -705 c154 -32 290 -130 346 -249 36 -76 36 -88 4 -565 -24
-361 -25 -364 -55 -428 -57 -123 -194 -226 -360 -272 -72 -20 -97 -21 -787
-21 -392 0 -713 3 -713 8 0 4 23 349 50 767 28 417 50 763 50 767 0 4 314 8
698 8 574 0 709 -3 767 -15z"/>
<path d="M20076 2931 c-4 -5 -36 -447 -72 -983 -47 -693 -64 -1001 -60 -1071
27 -442 250 -716 688 -844 l93 -27 849 -4 c933 -3 917 -4 1111 58 304 98 535
310 645 591 61 156 66 203 137 1260 36 548 64 1003 60 1012 -6 15 -42 17 -396
17 l-391 0 -4 -22 c-3 -13 -30 -423 -61 -913 -34 -542 -61 -915 -70 -954 -28
-122 -116 -221 -260 -291 -141 -70 -142 -70 -688 -70 -413 0 -499 2 -551 16
-193 49 -341 188 -353 331 -2 32 23 469 56 972 33 503 58 918 55 922 -7 12
-781 12 -788 0z"/>
<path d="M25730 2933 c-461 -47 -782 -242 -949 -579 -94 -189 -110 -288 -151
-946 -26 -404 -29 -494 -20 -582 35 -342 186 -568 475 -711 61 -30 155 -67
210 -82 l100 -28 1142 -3 1141 -2 6 62 c14 151 38 599 32 613 -5 13 -118 15
-947 15 -824 0 -949 2 -1002 16 -121 31 -234 104 -296 190 -67 93 -67 92 -37
551 15 224 29 422 32 438 18 92 132 218 249 278 154 77 68 71 1145 77 l965 5
23 334 c13 184 21 340 18 348 -4 11 -183 13 -1053 11 -576 0 -1064 -3 -1083
-5z"/>
<path d="M30004 2930 c-567 -62 -932 -384 -1018 -900 -8 -47 -29 -316 -47
-598 -30 -461 -32 -524 -21 -623 34 -300 168 -516 411 -663 88 -53 231 -106
353 -130 116 -24 1685 -24 1809 0 449 85 754 358 859 769 26 103 36 206 71
744 26 415 29 499 19 586 -47 437 -314 709 -785 801 -80 16 -171 18 -835 20
-410 1 -777 -2 -816 -6z m1261 -705 c156 -33 289 -128 345 -247 37 -79 38 -94
5 -568 -16 -243 -29 -369 -39 -399 -48 -132 -196 -250 -378 -301 -68 -19 -101
-20 -568 -20 -543 0 -551 1 -677 61 -81 39 -175 129 -208 200 -31 68 -31 74 0
546 16 244 30 394 40 423 44 133 219 263 410 305 92 20 974 20 1070 0z"/>
<path d="M33716 2932 c-3 -5 -46 -632 -95 -1393 -50 -761 -93 -1419 -97 -1462
l-6 -77 401 0 c221 0 401 3 401 8 0 4 32 497 70 1095 39 598 70 1099 70 1113
l0 24 513 0 512 0 -66 -1042 c-37 -574 -70 -1078 -73 -1120 l-5 -78 398 0 398
0 6 48 c3 26 36 530 74 1120 l67 1072 276 0 c312 0 371 -8 487 -65 144 -71
233 -196 233 -326 0 -63 -104 -1701 -114 -1801 l-5 -48 399 0 399 0 5 43 c3
23 31 440 62 927 75 1188 73 1252 -37 1477 -118 240 -359 403 -694 470 -84 16
-207 18 -1832 20 -1012 2 -1744 0 -1747 -5z"/>
<path d="M11218 2783 c-98 -164 -178 -389 -214 -593 -22 -126 -25 -406 -5
-520 55 -322 181 -603 400 -894 202 -268 456 -478 743 -616 144 -68 242 -103
388 -136 l105 -24 721 0 720 0 -39 383 c-21 210 -42 385 -45 389 -4 3 -65 -3
-137 -14 -182 -29 -669 -32 -849 -5 -405 61 -735 175 -996 344 -119 77 -289
250 -374 380 -210 322 -329 735 -343 1196 -4 133 -9 187 -17 187 -7 0 -33 -35
-58 -77z"/>
</g>
</svg>
